<svg xmlns="http://www.w3.org/2000/svg" viewBox="0 0 512 512">
  <defs>
    <linearGradient id="g1" x1="0" y1="0" x2="1" y2="1">
      <stop offset="0%" stop-color="#8b8dff"/>
      <stop offset="100%" stop-color="#696cff"/>
    </linearGradient>
  </defs>

  <!-- Left wing of V -->
  <path d="M140 90
           C155 95, 175 110, 190 145
           L250 390
           L205 350
           C170 260,150 185,130 120
           C125 105,128 95,140 90 Z"
        fill="url(#g1)"/>

  <!-- Inner highlight -->
  <path d="M175 120
           C185 125,195 135,202 150
           L225 250
           L205 230
           L185 155
           C180 140,177 130,175 120 Z"
        fill="#c7c9ff" opacity="0.55"/>

  <!-- Right wing of V -->
  <path d="M365 105
           C350 108,330 122,315 150
           L270 330
           L300 300
           L338 165
           C345 140,355 120,365 105 Z"
        fill="url(#g1)"/>

  <!-- Small highlight -->
  <path d="M333 132
           C326 138,320 145,315 158
           L305 198
           L317 186
           L326 154
           C329 145,331 138,333 132 Z"
        fill="#c7c9ff" opacity="0.55"/>
</svg>